{
  "source": "C:\\Users\\Peter\\Desktop\\stuff\\MIUN\\quantitative_research\\video_compression\\videos\\UVG\\Bosphorus_1920x1080_120fps_420_8bit_YUV.y4m",
  "output": "C:\\Users\\Peter\\Desktop\\stuff\\MIUN\\quantitative_research\\video_compression\\compressed_videos\\UVG\\h264\\2\\Bosphorus_1920x1080_120fps_420_8bit_YUV_h264.mp4",
  "codec": "h264",
  "ok": "[yuv4mpegpipe @ 000002c250ed5e00] Stream #0: not enough frames to estimate rate; consider increasing probesize\nInput #0, yuv4mpegpipe, from 'C:\\Users\\Peter\\Desktop\\stuff\\MIUN\\quantitative_research\\video_compression\\videos\\UVG\\Bosphorus_1920x1080_120fps_420_8bit_YUV.y4m':\n  Duration: 00:00:05.00, start: 0.000000, bitrate: 2985989 kb/s\n  Stream #0:0: Video: rawvideo (I420 / 0x30323449), yuv420p(progressive), 1920x1080, 120 fps, 120 tbr, 120 tbn\n[out#0/mp4 @ 000002c250eda600] Codec AVOption b:a (set bitrate (in bits/s)) has not been used for any stream. The most likely reason is either wrong type (e.g. a video option with no video streams) or that it is a private option of some decoder which was not actually used for any stream.\nStream mapping:\n  Stream #0:0 -> #0:0 (rawvideo (native) -> h264 (libx264))\nPress [q] to stop, [?] for help\n[libx264 @ 000002c250edca80] using cpu capabilities: MMX2 SSE2Fast SSSE3 SSE4.2 AVX FMA3 BMI2 AVX2\n[libx264 @ 000002c250edca80] profile High, level 5.1, 4:2:0, 8-bit\n[libx264 @ 000002c250edca80] 264 - core 165 r3222 b35605a - H.264/MPEG-4 AVC codec - Copyleft 2003-2025 - http://www.videolan.org/x264.html - options: cabac=1 ref=5 deblock=1:0:0 analyse=0x3:0x113 me=hex subme=8 psy=1 psy_rd=1.00:0.00 mixed_ref=1 me_range=16 chroma_me=1 trellis=2 8x8dct=1 cqm=0 deadzone=21,11 fast_pskip=1 chroma_qp_offset=-2 threads=18 lookahead_threads=3 sliced_threads=0 nr=0 decimate=1 interlaced=0 bluray_compat=0 constrained_intra=0 bframes=3 b_pyramid=2 b_adapt=1 b_bias=0 direct=3 weightb=1 open_gop=0 weightp=2 keyint=250 keyint_min=25 scenecut=40 intra_refresh=0 rc_lookahead=50 rc=cbr mbtree=1 bitrate=2000 ratetol=1.0 qcomp=0.60 qpmin=0 qpmax=69 qpstep=4 vbv_maxrate=2000 vbv_bufsize=2000 nal_hrd=none filler=0 ip_ratio=1.40 aq=1:1.00\nOutput #0, mp4, to 'C:\\Users\\Peter\\Desktop\\stuff\\MIUN\\quantitative_research\\video_compression\\compressed_videos\\UVG\\h264\\2\\Bosphorus_1920x1080_120fps_420_8bit_YUV_h264.mp4':\n  Metadata:\n    encoder         : Lavf62.3.100\n  Stream #0:0: Video: h264 (avc1 / 0x31637661), yuv420p(tv, progressive), 1920x1080, q=2-31, 2000 kb/s, 120 fps, 15360 tbn\n    Metadata:\n      encoder         : Lavc62.11.100 libx264\n    Side data:\n      cpb: bitrate max/min/avg: 2000000/0/2000000 buffer size: 2000000 vbv_delay: N/A\nframe=    0 fps=0.0 q=0.0 size=       0KiB time=N/A bitrate=N/A speed=N/A elapsed=0:00:00.51    \nframe=    0 fps=0.0 q=0.0 size=       0KiB time=N/A bitrate=N/A speed=N/A elapsed=0:00:01.04    \nframe=    0 fps=0.0 q=0.0 size=       0KiB time=N/A bitrate=N/A speed=N/A elapsed=0:00:01.61    \nframe=    4 fps=1.8 q=50.0 size=       0KiB time=N/A bitrate=N/A speed=N/A elapsed=0:00:02.28    \nframe=   32 fps= 11 q=44.0 size=       0KiB time=00:00:00.18 bitrate=   2.1kbits/s speed=0.0623x elapsed=0:00:02.94    \nframe=   34 fps=9.3 q=44.0 size=       0KiB time=00:00:00.26 bitrate=   1.4kbits/s speed=0.0726x elapsed=0:00:03.67    \nframe=   60 fps= 14 q=44.0 size=       0KiB time=00:00:00.43 bitrate=   0.9kbits/s speed=0.103x elapsed=0:00:04.20    \nframe=   84 fps= 17 q=43.0 size=       0KiB time=00:00:00.61 bitrate=   0.6kbits/s speed=0.124x elapsed=0:00:04.95    \nframe=  106 fps= 19 q=43.0 size=       0KiB time=00:00:00.81 bitrate=   0.5kbits/s speed=0.146x elapsed=0:00:05.60    \nframe=  126 fps= 20 q=43.0 size=       0KiB time=00:00:00.98 bitrate=   0.4kbits/s speed=0.154x elapsed=0:00:06.37    \nframe=  152 fps= 21 q=43.0 size=     256KiB time=00:00:01.21 bitrate=1724.0kbits/s speed=0.171x elapsed=0:00:07.09    \nframe=  176 fps= 23 q=43.0 size=     256KiB time=00:00:01.41 bitrate=1480.6kbits/s speed=0.182x elapsed=0:00:07.76    \nframe=  192 fps= 23 q=43.0 size=     256KiB time=00:00:01.58 bitrate=1324.8kbits/s speed=0.188x elapsed=0:00:08.42    \nframe=  212 fps= 23 q=43.0 size=     256KiB time=00:00:01.68 bitrate=1246.1kbits/s speed=0.186x elapsed=0:00:09.05    \nframe=  222 fps= 23 q=43.0 size=     256KiB time=00:00:01.83 bitrate=1144.1kbits/s speed=0.188x elapsed=0:00:09.76    \nframe=  233 fps= 22 q=43.0 size=     256KiB time=00:00:01.92 bitrate=1089.6kbits/s speed=0.182x elapsed=0:00:10.58    \nframe=  254 fps= 22 q=43.0 size=     256KiB time=00:00:02.03 bitrate=1031.6kbits/s speed=0.179x elapsed=0:00:11.37    \nframe=  282 fps= 23 q=44.0 size=     512KiB time=00:00:02.30 bitrate=1823.8kbits/s speed=0.188x elapsed=0:00:12.21    \nframe=  300 fps= 23 q=44.0 size=     512KiB time=00:00:02.48 bitrate=1689.1kbits/s speed=0.193x elapsed=0:00:12.87    \nframe=  319 fps= 23 q=44.0 size=     512KiB time=00:00:02.63 bitrate=1592.9kbits/s speed=0.193x elapsed=0:00:13.65    \nframe=  350 fps= 24 q=44.0 size=     512KiB time=00:00:02.80 bitrate=1498.1kbits/s speed=0.193x elapsed=0:00:14.48    \nframe=  374 fps= 25 q=43.0 size=     512KiB time=00:00:03.03 bitrate=1382.9kbits/s speed=0.199x elapsed=0:00:15.21    \nframe=  400 fps= 25 q=43.0 size=     768KiB time=00:00:03.30 bitrate=1906.6kbits/s speed=0.205x elapsed=0:00:16.09    \nframe=  418 fps= 25 q=43.0 size=     768KiB time=00:00:03.43 bitrate=1832.6kbits/s speed=0.204x elapsed=0:00:16.83    \nframe=  444 fps= 25 q=43.0 size=     768KiB time=00:00:03.66 bitrate=1716.0kbits/s speed=0.209x elapsed=0:00:17.57    \nframe=  463 fps= 25 q=43.0 size=     768KiB time=00:00:03.83 bitrate=1641.3kbits/s speed=0.21x elapsed=0:00:18.25    \nframe=  483 fps= 25 q=44.0 size=     768KiB time=00:00:04.00 bitrate=1569.7kbits/s speed=0.211x elapsed=0:00:18.95    \nframe=  500 fps= 25 q=44.0 size=     768KiB time=00:00:04.11 bitrate=1528.4kbits/s speed=0.208x elapsed=0:00:19.81    \nframe=  522 fps= 25 q=44.0 size=    1024KiB time=00:00:04.33 bitrate=1935.9kbits/s speed=0.211x elapsed=0:00:20.58    \nframe=  561 fps= 26 q=44.0 size=    1024KiB time=00:00:04.49 bitrate=1867.7kbits/s speed=0.211x elapsed=0:00:21.24    \nframe=  570 fps= 26 q=44.0 size=    1024KiB time=00:00:04.73 bitrate=1772.3kbits/s speed=0.213x elapsed=0:00:22.18    \nframe=  594 fps= 26 q=-1.0 size=    1024KiB time=00:00:04.88 bitrate=1717.9kbits/s speed=0.214x elapsed=0:00:22.80    \n[mp4 @ 000002c250edb700] Starting second pass: moving the moov atom to the beginning of the file\n[out#0/mp4 @ 000002c250eda600] video:1210KiB audio:0KiB subtitle:0KiB other streams:0KiB global headers:0KiB muxing overhead: 0.650570%\nframe=  600 fps= 25 q=-1.0 Lsize=    1218KiB time=00:00:04.98 bitrate=2001.6kbits/s speed=0.211x elapsed=0:00:23.59    \n[libx264 @ 000002c250edca80] frame I:3     Avg QP:38.21  size: 19446\n[libx264 @ 000002c250edca80] frame P:151   Avg QP:38.93  size:  3923\n[libx264 @ 000002c250edca80] frame B:446   Avg QP:39.00  size:  1317\n[libx264 @ 000002c250edca80] consecutive B-frames:  0.8%  0.0%  0.5% 98.7%\n[libx264 @ 000002c250edca80] mb I  I16..4: 41.3% 57.1%  1.6%\n[libx264 @ 000002c250edca80] mb P  I16..4:  0.9%  0.2%  0.0%  P16..4: 19.4%  1.2%  1.9%  0.0%  0.0%    skip:76.4%\n[libx264 @ 000002c250edca80] mb B  I16..4:  0.0%  0.0%  0.0%  B16..8: 24.8%  0.0%  0.0%  direct: 0.0%  skip:75.2%  L0:28.6% L1:71.3% BI: 0.0%\n[libx264 @ 000002c250edca80] 8x8 transform intra:43.9% inter:95.4%\n[libx264 @ 000002c250edca80] direct mvs  spatial:97.8% temporal:2.2%\n[libx264 @ 000002c250edca80] coded y,uvDC,uvAC intra: 15.3% 16.9% 1.5% inter: 0.6% 0.5% 0.0%\n[libx264 @ 000002c250edca80] i16 v,h,dc,p: 12% 66%  4% 18%\n[libx264 @ 000002c250edca80] i8 v,h,dc,ddl,ddr,vr,hd,vl,hu: 11% 20% 23%  4%  8%  5% 12%  4% 13%\n[libx264 @ 000002c250edca80] i4 v,h,dc,ddl,ddr,vr,hd,vl,hu:  6% 20%  8%  7% 10%  9% 14%  6% 20%\n[libx264 @ 000002c250edca80] i8c dc,h,v,p: 54% 42%  3%  1%\n[libx264 @ 000002c250edca80] Weighted P-Frames: Y:0.0% UV:0.0%\n[libx264 @ 000002c250edca80] ref P L0: 54.8% 11.2% 24.3%  3.8%  5.9%\n[libx264 @ 000002c250edca80] ref B L0: 91.8%  6.7%  1.1%  0.4%\n[libx264 @ 000002c250edca80] ref B L1: 95.2%  4.8%\n[libx264 @ 000002c250edca80] kb/s:1980.80\n",
  "seconds": 24.713695287704468,
  "probe_out": {}
}